<svg width="136" height="32" viewBox="0 0 136 32" fill="none" xmlns="http://www.w3.org/2000/svg">
<g clip-path="url(#clip0_1749_673)">
<path d="M31.9973 16C31.9973 7.16267 24.8347 0 15.9987 0C7.16267 0 0 7.16267 0 16C0 23.984 5.85067 30.6027 13.4987 31.8027V20.624H9.43733V15.9987H13.4987V12.4747C13.4987 8.464 15.888 6.24933 19.5413 6.24933C21.292 6.24933 23.1227 6.56133 23.1227 6.56133V10.4987H21.1067C19.12 10.4987 18.5 11.732 18.5 12.9973V16H22.9373L22.228 20.6253H18.5V31.804C26.148 30.604 31.9987 23.9853 31.9987 16H31.9973Z" fill="white" fill-opacity="0.3"/>
</g>
<g clip-path="url(#clip1_1749_673)">
<path d="M73 16C73 17.3261 72.4732 18.5979 71.5355 19.5355C70.5979 20.4732 69.3261 21 68 21C66.6739 21 65.4021 20.4732 64.4645 19.5355C63.5268 18.5979 63 17.3261 63 16C63 15.715 63.03 15.4367 63.0817 15.1667H61.3333V21.8283C61.3333 22.2917 61.7083 22.6667 62.1717 22.6667H73.83C74.0521 22.6662 74.2649 22.5777 74.4217 22.4205C74.5786 22.2634 74.6667 22.0504 74.6667 21.8283V15.1667H72.9183C72.97 15.4367 73 15.715 73 16ZM68 19.3333C68.4378 19.3332 68.8714 19.2469 69.2759 19.0792C69.6803 18.9116 70.0478 18.6659 70.3574 18.3562C70.6669 18.0465 70.9124 17.6789 71.0799 17.2743C71.2473 16.8698 71.3334 16.4362 71.3333 15.9983C71.3332 15.5605 71.2469 15.1269 71.0792 14.7225C70.9116 14.318 70.6659 13.9505 70.3562 13.641C70.0465 13.3314 69.6789 13.0859 69.2743 12.9185C68.8698 12.751 68.4362 12.6649 67.9983 12.665C67.1141 12.6652 66.2661 13.0167 65.641 13.6421C65.0158 14.2676 64.6648 15.1157 64.665 16C64.6652 16.8843 65.0167 17.7322 65.6421 18.3574C66.2676 18.9825 67.1157 19.3336 68 19.3333ZM72 12.5H73.9983C74.1311 12.5 74.2584 12.4474 74.3525 12.3537C74.4465 12.2599 74.4996 12.1328 74.5 12V10.0017C74.5 9.86862 74.4471 9.74102 74.3531 9.64693C74.259 9.55285 74.1314 9.5 73.9983 9.5H72C71.8669 9.5 71.7393 9.55285 71.6453 9.64693C71.5512 9.74102 71.4983 9.86862 71.4983 10.0017V12C71.5 12.275 71.725 12.5 72 12.5ZM68 0C63.7565 0 59.6869 1.68571 56.6863 4.68629C53.6857 7.68687 52 11.7565 52 16C52 20.2435 53.6857 24.3131 56.6863 27.3137C59.6869 30.3143 63.7565 32 68 32C70.1012 32 72.1817 31.5861 74.1229 30.7821C76.0641 29.978 77.828 28.7994 79.3137 27.3137C80.7994 25.828 81.978 24.0641 82.7821 22.1229C83.5861 20.1817 84 18.1012 84 16C84 13.8989 83.5861 11.8183 82.7821 9.87706C81.978 7.93586 80.7994 6.17203 79.3137 4.68629C77.828 3.20055 76.0641 2.022 74.1229 1.21793C72.1817 0.413852 70.1012 0 68 0ZM76.3333 22.4817C76.3333 23.5 75.5 24.3333 74.4817 24.3333H61.5183C60.5 24.3333 59.6667 23.5 59.6667 22.4817V9.51833C59.6667 8.5 60.5 7.66667 61.5183 7.66667H74.4817C75.5 7.66667 76.3333 8.5 76.3333 9.51833V22.4817Z" fill="white" fill-opacity="0.3"/>
</g>
<g clip-path="url(#clip2_1749_673)">
<path d="M120 32C117.833 32 115.76 31.5781 113.781 30.7344C111.802 29.8906 110.099 28.7552 108.672 27.3281C107.245 25.901 106.109 24.1979 105.266 22.2188C104.422 20.2396 104 18.1667 104 16C104 13.8333 104.422 11.7604 105.266 9.78125C106.109 7.80208 107.245 6.09896 108.672 4.67188C110.099 3.24479 111.802 2.10938 113.781 1.26562C115.76 0.421875 117.833 0 120 0C122.167 0 124.24 0.421875 126.219 1.26562C128.198 2.10938 129.901 3.24479 131.328 4.67188C132.755 6.09896 133.891 7.80208 134.734 9.78125C135.578 11.7604 136 13.8333 136 16C136 18.1667 135.578 20.2396 134.734 22.2188C133.891 24.1979 132.755 25.901 131.328 27.3281C129.901 28.7552 128.198 29.8906 126.219 30.7344C124.24 31.5781 122.167 32 120 32ZM129.406 8C129.281 8.0625 129.094 8.17708 128.844 8.34375L128.234 8.75L127.656 9.0625L127 9.28125C126.229 8.42708 125.281 8 124.156 8C121.719 8 120.5 9.02083 120.5 11.0625V12.9062C117.146 12.7396 114.573 11.5104 112.781 9.21875C112.26 9.76042 112 10.3542 112 11C112 12.375 112.51 13.4167 113.531 14.125C113.406 14.125 113.229 14.1354 113 14.1562C112.771 14.1771 112.589 14.1771 112.453 14.1562C112.318 14.1354 112.167 14.0833 112 14C112 14.9583 112.255 15.7552 112.766 16.3906C113.276 17.026 113.979 17.4375 114.875 17.625C114.667 17.875 114.375 18 114 18C113.667 18 113.375 17.9062 113.125 17.7188C113.125 18.5312 113.516 19.1615 114.297 19.6094C115.078 20.0573 115.958 20.2917 116.938 20.3125C116.562 20.875 116.016 21.2969 115.297 21.5781C114.578 21.8594 113.812 22 113 22C112.708 22 112.307 21.9271 111.797 21.7812C111.286 21.6354 111.021 21.5625 111 21.5625C111.333 22.2292 112.016 22.8021 113.047 23.2812C114.078 23.7604 115.385 24 116.969 24C118.365 24 119.667 23.7552 120.875 23.2656C122.083 22.776 123.115 22.125 123.969 21.3125C124.823 20.5 125.557 19.5729 126.172 18.5312C126.786 17.4896 127.245 16.4115 127.547 15.2969C127.849 14.1823 128 13.0833 128 12C128 11.9583 128.125 11.8698 128.375 11.7344C128.625 11.599 128.917 11.4167 129.25 11.1875C129.583 10.9583 129.833 10.7188 130 10.4688C128.875 10.4688 128.125 10.4896 127.75 10.5312C128.479 10.0938 129.031 9.25 129.406 8Z" fill="white" fill-opacity="0.3"/>
</g>
<defs>
<clipPath id="clip0_1749_673">
<rect width="32" height="32" fill="white"/>
</clipPath>
<clipPath id="clip1_1749_673">
<rect width="32" height="32" fill="white" transform="translate(52)"/>
</clipPath>
<clipPath id="clip2_1749_673">
<rect width="32" height="32" fill="white" transform="translate(104)"/>
</clipPath>
</defs>
</svg>
